<svg width="512" height="512" viewBox="0 0 512 512" fill="none" xmlns="http://www.w3.org/2000/svg">
<rect width="512" height="512" rx="256" fill="#DBE9FE"/>
<path d="M289.375 142.583H221.625C215.389 142.583 210.333 147.639 210.333 153.875V176.458C210.333 182.695 215.389 187.75 221.625 187.75H289.375C295.611 187.75 300.667 182.695 300.667 176.458V153.875C300.667 147.639 295.611 142.583 289.375 142.583Z" stroke="#2463EB" stroke-width="22.5833" stroke-linecap="round" stroke-linejoin="round"/>
<path d="M300.667 165.167H323.25C329.239 165.167 334.984 167.546 339.219 171.781C343.454 176.016 345.833 181.761 345.833 187.75V345.833C345.833 351.823 343.454 357.567 339.219 361.802C334.984 366.037 329.239 368.417 323.25 368.417H187.75C181.761 368.417 176.016 366.037 171.781 361.802C167.546 357.567 165.167 351.823 165.167 345.833V187.75C165.167 181.761 167.546 176.016 171.781 171.781C176.016 167.546 181.761 165.167 187.75 165.167H210.333" stroke="#2463EB" stroke-width="22.5833" stroke-linecap="round" stroke-linejoin="round"/>
<rect x="313" y="323" width="95" height="95" rx="47.5" fill="#EDF4FF"/>
<path d="M356.15 343C362.138 343 367.782 345.255 372.108 349.376L372.523 349.78C380.835 358.104 381.488 371.221 374.488 380.297L386.019 391.827C387.147 392.956 387.168 394.794 386.018 395.919L386.019 395.92C385.457 396.482 384.704 396.771 383.966 396.771C383.227 396.771 382.475 396.482 381.913 395.92L370.401 384.408C366.346 387.592 361.382 389.319 356.15 389.319C349.97 389.319 344.155 386.916 339.777 382.539C330.741 373.503 330.741 358.816 339.777 349.78C344.142 345.416 349.969 343 356.15 343ZM356.15 348.821C351.515 348.821 347.161 350.621 343.883 353.898C337.113 360.668 337.113 371.677 343.883 378.446C347.161 381.724 351.515 383.523 356.15 383.523C360.786 383.523 365.14 381.724 368.418 378.446C375.187 371.677 375.187 360.668 368.418 353.898C365.14 350.621 360.786 348.821 356.15 348.821Z" fill="#2463EB" stroke="#2463EB" stroke-width="2"/>
</svg>
